REM DIRINDEX 1\2,1\3,1\4,1\6,1\5\7,1\5\8
REM DIRNAME cjc114,folder01,folder02,folder03,folder04,folder05,folder06,folder07
TITLE ""
FILE "DB4500_5th_1A_15.mp3" MP3
  TRACK 01 AUDIO
    TITLE "2:cjc114_0413"
    INDEX 01 00:00:00
  TRACK 02 AUDIO
    TITLE "0:"
    INDEX 01 00:01:15
  TRACK 03 AUDIO
    TITLE "3:cjc114_0414"
    INDEX 01 00:01:42
  TRACK 04 AUDIO
    TITLE "0:"
    INDEX 01 00:02:45
  TRACK 05 AUDIO
    TITLE "4:cjc114_0415"
    INDEX 01 00:02:73
  TRACK 06 AUDIO
    TITLE "0:"
    INDEX 01 00:06:30
  TRACK 07 AUDIO
    TITLE "4:cjc114_0416"
    INDEX 01 00:07:58
  TRACK 08 AUDIO
    TITLE "0:"
    INDEX 01 00:10:47
  TRACK 09 AUDIO
    TITLE "2:cjc114_0417"
    INDEX 01 00:11:27
  TRACK 10 AUDIO
    TITLE "0:"
    INDEX 01 00:12:28
  TRACK 11 AUDIO
    TITLE "3:cjc114_0418"
    INDEX 01 00:12:56
  TRACK 12 AUDIO
    TITLE "0:"
    INDEX 01 00:13:71
  TRACK 13 AUDIO
    TITLE "4:cjc114_0419"
    INDEX 01 00:14:21
  TRACK 14 AUDIO
    TITLE "0:"
    INDEX 01 00:17:20
  TRACK 15 AUDIO
    TITLE "2:cjc114_0420"
    INDEX 01 00:17:74
  TRACK 16 AUDIO
    TITLE "0:"
    INDEX 01 00:19:15
  TRACK 17 AUDIO
    TITLE "3:cjc114_0421"
    INDEX 01 00:19:42
  TRACK 18 AUDIO
    TITLE "0:"
    INDEX 01 00:20:49
  TRACK 19 AUDIO
    TITLE "4:cjc114_0422"
    INDEX 01 00:21:02
  TRACK 20 AUDIO
    TITLE "0:"
    INDEX 01 00:24:65
  TRACK 21 AUDIO
    TITLE "2:cjc114_0423"
    INDEX 01 00:25:41
  TRACK 22 AUDIO
    TITLE "0:"
    INDEX 01 00:26:44
  TRACK 23 AUDIO
    TITLE "3:cjc114_0424"
    INDEX 01 00:26:73
  TRACK 24 AUDIO
    TITLE "0:"
    INDEX 01 00:28:13
  TRACK 25 AUDIO
    TITLE "4:cjc114_0425"
    INDEX 01 00:28:41
  TRACK 26 AUDIO
    TITLE "0:"
    INDEX 01 00:31:55
  TRACK 27 AUDIO
    TITLE "2:cjc114_0426"
    INDEX 01 00:32:35
  TRACK 28 AUDIO
    TITLE "0:"
    INDEX 01 00:33:48
  TRACK 29 AUDIO
    TITLE "3:cjc114_0427"
    INDEX 01 00:34:00
  TRACK 30 AUDIO
    TITLE "0:"
    INDEX 01 00:35:02
  TRACK 31 AUDIO
    TITLE "4:cjc114_0428"
    INDEX 01 00:35:29
  TRACK 32 AUDIO
    TITLE "0:"
    INDEX 01 00:38:71
  TRACK 33 AUDIO
    TITLE "2:cjc114_0429"
    INDEX 01 00:39:51
  TRACK 34 AUDIO
    TITLE "0:"
    INDEX 01 00:40:58
  TRACK 35 AUDIO
    TITLE "3:cjc114_0430"
    INDEX 01 00:41:08
  TRACK 36 AUDIO
    TITLE "0:"
    INDEX 01 00:42:19
  TRACK 37 AUDIO
    TITLE "4:cjc114_0431"
    INDEX 01 00:42:47
  TRACK 38 AUDIO
    TITLE "0:"
    INDEX 01 00:46:07
  TRACK 39 AUDIO
    TITLE "2:cjc114_0432"
    INDEX 01 00:46:60
  TRACK 40 AUDIO
    TITLE "0:"
    INDEX 01 00:47:74
  TRACK 41 AUDIO
    TITLE "3:cjc114_0433"
    INDEX 01 00:48:28
  TRACK 42 AUDIO
    TITLE "0:"
    INDEX 01 00:49:37
  TRACK 43 AUDIO
    TITLE "4:cjc114_0434"
    INDEX 01 00:49:65
  TRACK 44 AUDIO
    TITLE "0:"
    INDEX 01 00:53:49
  TRACK 45 AUDIO
    TITLE "2:cjc114_0435"
    INDEX 01 00:54:25
  TRACK 46 AUDIO
    TITLE "0:"
    INDEX 01 00:55:10
  TRACK 47 AUDIO
    TITLE "3:cjc114_0436"
    INDEX 01 00:55:51
  TRACK 48 AUDIO
    TITLE "0:"
    INDEX 01 00:58:48
  TRACK 49 AUDIO
    TITLE "4:cjc114_0437"
    INDEX 01 00:59:18
  TRACK 50 AUDIO
    TITLE "0:"
    INDEX 01 01:01:70
  TRACK 51 AUDIO
    TITLE "4:cjc114_0438"
    INDEX 01 01:02:28
  TRACK 52 AUDIO
    TITLE "0:"
    INDEX 01 01:05:64
  TRACK 53 AUDIO
    TITLE "2:cjc114_0439"
    INDEX 01 01:06:43
  TRACK 54 AUDIO
    TITLE "0:"
    INDEX 01 01:07:35
  TRACK 55 AUDIO
    TITLE "3:cjc114_0440"
    INDEX 01 01:07:64
  TRACK 56 AUDIO
    TITLE "0:"
    INDEX 01 01:10:59
  TRACK 57 AUDIO
    TITLE "4:cjc114_0441"
    INDEX 01 01:11:13
  TRACK 58 AUDIO
    TITLE "0:"
    INDEX 01 01:14:61
  TRACK 59 AUDIO
    TITLE "2:cjc114_0442"
    INDEX 01 01:15:50
  TRACK 60 AUDIO
    TITLE "0:"
    INDEX 01 01:16:46
  TRACK 61 AUDIO
    TITLE "3:cjc114_0443"
    INDEX 01 01:17:06
  TRACK 62 AUDIO
    TITLE "0:"
    INDEX 01 01:20:04
  TRACK 63 AUDIO
    TITLE "4:cjc114_0444"
    INDEX 01 01:20:32
  TRACK 64 AUDIO
    TITLE "0:"
    INDEX 01 01:22:64
